# xmcd
#
# Track frame offsets:
#	150
#	57835
#	84637
#	116950
#	151975
#	180732
#	204035
#	240222
#	271542
#	297690
#
# Disc length: 4481 seconds
# Revision: 31
# Processed by: cddbd v1.5.2PL0 Copyright (c) Steve Scherf et al.
# Submitted via: dBpowerAMP V12.0
#
DISCID=82117f0a
DTITLE=Eric Clapton - Blues (Live)
DYEAR=1999
DGENRE=Blues
TTITLE0=Stormy Monday
TTITLE1=Worried Life Blues
TTITLE2=Early in the Morning
TTITLE3=Have You Ever Loved a Woman
TTITLE4=Wonderful Tonight
TTITLE5=Kind Hearted Woman
TTITLE6=Double Trouble
TTITLE7=Driftin' Blues
TTITLE8=Crossroads
TTITLE9=Further On Up the Road
EXTD=
EXTT0=
EXTT1=
EXTT2=
EXTT3=
EXTT4=
EXTT5=
EXTT6=
EXTT7=
EXTT8=
EXTT9=
PLAYORDER=
